<?xml version="1.0" encoding="utf-8"?>
<!-- Generator: Adobe Illustrator 25.0.1, SVG Export Plug-In . SVG Version: 6.00 Build 0)  -->
<svg version="1.1" id="Layer_1" xmlns="http://www.w3.org/2000/svg" xmlns:xlink="http://www.w3.org/1999/xlink" x="0px" y="0px"
	 viewBox="0 0 482.7 150" style="enable-background:new 0 0 482.7 150;" xml:space="preserve">
<style type="text/css">
	.st0{fill:#703244;}
	.st1{font-family:'Getting-Better';}
	.st2{font-size:74.1334px;}
	.st3{fill:#FFFFFF;}
	.st4{fill:#AA465E;}
</style>
<text transform="matrix(1 0 0 1 136.9277 92.2461)" class="st0 st1 st2">Honey Cakery</text>
<g>
	<path class="st3" d="M43,51c0,0-5.3,0.6-7.1,3.6s-3.6,5.9-4.6,11c-1,5.2-1.9,8.3-0.3,16.4s2.7,10.3,2.7,10.3l1,11.3l1.3,4.2
		l5.2,1.6l17.4,0.4l25.5-2.4l18.4-2.7c0,0,8.8-1.1,10.6-3.1c1.8-2,2.3-2.7,0.8-7.2s0.5-18.1-1-24c-1.6-5.9,0.3-6-0.4-7.5
		c-0.7-1.5-30.5-10.6-42.5-11c-2.9-1.3-5.3-0.5-6.8-1.3c-2.7-3.4-3.3-4.5-5.9-5.8C57,42,56.7,40.6,53,38.5c-1.1,1.2-2.5,4.1-5.3,4.7
		C45,43.8,43.3,44.4,43,51z"/>
	<g>
		<g>
			<path class="st0" d="M63.8,52.1c6.4,0.6,12.8,1,19.2,2.3c5.9,1,11.6,2.9,17.3,4.4c3.5,1.1,7.1,2.3,10.1,4.5
				c0.7,0.5,1.5,1.2,1.5,2.1c0.2,2.1,0.2,4.2-0.5,6.2s-2.5,3.4-4.3,4.4c-0.7,0.4-1.6,0.5-2.4,0.3c-1-0.4-1.9-1.2-2.4-2.1
				s-0.7-2-1.4-2.9c-0.6-0.7-1.6-1.2-2.5-1.2c-0.8,0.1-1.1,0.9-1.3,1.5c-0.9,3-0.9,6.3-1.9,9.3c-0.4,1.3-1.4,2.7-2.9,2.7
				c-1,0.1-1.9-0.7-2.3-1.6c-0.9-2.6-0.7-5.4-0.9-8.1c0-0.6-0.3-1.3-1-1.3s-1,0.7-1.2,1.3c-0.6,2-0.5,4.2-1.3,6.1
				c-0.4,1.1-1.4,2.1-2.6,2.1c-1,0-1.8-0.9-2.1-1.8c-0.7-2.2-0.5-4.5-1.1-6.8c-0.2-0.7-0.5-1.5-1.2-1.8c-0.9-0.4-1.9,0.1-2.5,0.8
				c-1,1.1-1.8,2.6-3.4,2.8c-1,0.2-1.9-0.6-2.4-1.4c-0.7-0.8-0.9-1.8-1.5-2.6c-0.6,0-1,0.5-1.3,0.9c-0.8,1-1.3,2.3-1.7,3.5
				c-0.8,2.5-1.4,5-2.2,7.5c-0.6,1.6-1.5,3.1-3,4c-1,0.6-2.3,0.6-3.2-0.2c-1.6-1.4-2.1-3.6-2.3-5.6c-0.3-2.2,0.4-4.5-0.5-6.6
				c-0.3-0.9-1.7-1.5-2.5-0.8c-1.6,1.1-2.4,3-3.9,4.2c-0.8,0.7-2,0.8-2.9,0.2c-0.8-0.5-1.2-1.5-1.8-2.3c-0.3-0.4-0.8-0.6-1.3-0.4
				c-1.2,0.4-1.8,1.7-2.3,2.8c-1.3,3-1.5,6.3-2.2,9.4c-0.3,0.9-0.5,2-1.3,2.6c-0.4,0.3-0.9,0-1.2-0.2c-1-0.8-1.4-2.1-1.7-3.2
				c-0.7-2.6-0.9-5.4-1.2-8.1c-0.4-2.9,0-5.7,0.4-8.6c0.3-2.1,0.8-4.2,1.4-6.3c0.8-2.9,2-5.7,3.9-8c1.4-1.4,3.2-2.2,5.1-2.8
				c-0.1,0.3-0.2,0.6-0.5,0.9c0.3,1.2,0.2,2.4,0.2,3.6c-0.1,1.1,0.5,2.2,1.5,2.8c2.2,1.3,4.9,1.3,7.4,1.4c1.7,0.1,3.5-0.1,5.2-0.3
				c2.5-0.5,5-0.9,7.3-1.8c0.7-0.3,1.6-0.9,1.5-1.8C65.7,55.7,63.6,54.2,63.8,52.1z"/>
			<g>
				<g>
					<path class="st4" d="M52.5,38.6c0.2-0.3,0.5-0.6,0.8-0.4c1.2,0.5,2,1.5,3,2.3c1,0.9,1.4,2.3,1.5,3.6c0.5,0.2,1,0.3,1.4,0.6
						c1.5,1,3,2.3,3.3,4.1c0.4,0.4,0.7,0.8,1,1.3c1.4,0,2.8,0.1,4.1,0.5c1.3,0.4,2.6,0.4,3.9,0.8c1.1,0.4,2.3,0.5,3.5,0.5
						c1.3,0.1,2.6,0.2,3.8,0.3c2,0,4,0.6,6,0.8c2.8,0.3,5.5,1.4,8.2,1.9c2.8,0.8,5.6,1.6,8.3,2.7c1.8,0.7,3.7,1.3,5.5,2
						c1,0.4,2.1,0.5,3,1.2c0.9,0.6,2,1.1,2.8,1.9c0.4,0.3,0.4,0.9,0,1.3c-0.5,0.7-1.6,0.7-2,1.5c-0.2,1,0.1,2.1,0.1,3.1
						c-0.2,2,0,4.1-1.1,5.9c-0.4,0.7-1.4,0.7-2.1,0.5c-0.9-0.4-1.7-1.1-2.1-2c-0.8-1.6-0.6-3.4-1-5.1c-0.2-0.7-0.8-1.2-1.4-1.3
						c-0.7-0.1-1.4,0.4-1.8,1c-0.6,0.8-0.7,2-1.5,2.7c-0.6,0.5-1.5,0.5-2.1,0.1c-0.9-0.4-1.4-1.4-2.2-1.8c-0.5,0.1-0.9,0.6-1.1,1.1
						c-0.5,0.9-0.9,1.8-0.9,2.9c-0.1,2.9,0.6,5.8-0.1,8.7c-0.2,0.9-0.8,1.9-1.8,2c-0.8,0-1.3-0.9-1.6-1.5c-1-2.1-1.3-4.5-1.3-6.8
						c0-1.6,0.6-3.3-0.3-4.8c-1.1-0.8-2.6-1.2-3.8-0.5c-0.7,0.5-1.2,1.3-1.2,2.1c-0.1,2,0.4,4,0.6,5.9c0,0.7,0,1.6-0.5,2.1
						c-0.4,0.4-1,0.1-1.4-0.2c-0.9-0.6-1.8-1.3-2.1-2.3c-0.6-1.7-0.2-3.6-0.7-5.4c-0.2-0.8-1.3-1.4-1.9-0.7c-0.6,0.9-0.9,2-1.6,2.8
						c-0.5,0.5-1.2,0.8-1.8,0.6c-0.8-0.3-1.5-0.7-2.1-1.2s-0.7-1.4-1.3-1.9c-0.7-0.4-1.8-0.6-2.4,0.1c-0.6,0.8-0.7,2-1.5,2.7
						c-0.5,0.4-1.3,0.7-1.9,0.4c-0.7-0.3-1.1-1-1.4-1.7c-0.4-0.2-0.8-0.4-1.2-0.5c-0.7,1.1-0.9,2.5-1,3.8c-0.2,1.4,0.1,2.8-0.1,4.3
						c-0.2,1.2-0.5,2.5-1.3,3.6c-0.8,1-2.3,1-3.3,0.5c-1.4-0.7-2.5-1.9-3-3.4c-0.7-1.8-0.7-3.8-0.7-5.7c0-0.9,0-1.8-0.3-2.6
						c-0.5,0.1-1,0.1-1.4,0.4c-0.8,0.5-1,1.5-1.7,2.1c-0.7,0.7-2,0.7-2.5-0.1c-0.4-0.6-0.1-1.7-1-2.1c-0.7,0-1.4,0.5-1.6,1.2
						c-0.4,1.3-0.2,2.6-0.4,3.9c-0.1,0.5-0.5,1.2-1.1,1.2c-0.9-0.1-1.6-1-1.8-1.8c-0.3-1-0.2-2-0.5-3c-0.1-0.4-0.5-0.6-0.8-0.8
						c-0.7,0.3-1.5,0.8-1.9,1.5c-0.9,1.5-0.9,3.3-1.1,5c-0.2,2.3-0.2,4.6-0.4,7c-0.1,1.1-0.5,2.3-1.4,3.1c-0.4,0.3-0.9,0.3-1.4,0.3
						c0.1,0.4,0.2,0.7,0.4,1.1c3.7,0.6,7.3-0.4,10.7-1.6c3.4-1.3,7.1-1.7,10.7-1.4c2.5,0.2,5,0.2,7.4-0.3c3-0.5,5.9-0.9,8.9-1.2
						c2.2-0.3,4.5,0,6.8-0.1c1.7,0,3.3,0.4,4.9,0.6c1.3,0,2.7,0.3,4-0.2c3.7-1.3,7.5-2.1,11.4-1.9c3.2,0.2,6.4,0.9,9.6,0.7
						c1.1,0,2.2,0,3.2-0.3c0.7-0.1,1.3-0.5,2-0.8c-0.5-1.8-0.3-3.7-0.5-5.5c-0.2-1.7,0.2-3.4,0-5.1c0-1.7-0.5-3.3-0.7-5
						c-0.1-1.1-0.5-2.1-0.6-3.1c0.3,0.2,0.7,0.3,0.8,0.7c0.8,1.3,1,2.8,1.4,4.2c0.8,2.7,0.5,5.5,0.4,8.3c0.1,1.6-0.2,3.1,0.1,4.7
						c0.5,2.4,0.4,4.8,0.5,7.2c-0.1,1.3-0.2,2.5,0.2,3.8c0.3,1.6,0.9,3.5,0,5c-0.1,0.4-0.5,0.4-0.8,0.5c0.3-1,0.9-2,0.7-3.2
						c-0.2-1.2-0.4-2.3-0.6-3.4c-0.2-1,0.1-1.9-0.1-2.9c-0.2-0.9-0.2-1.7-0.3-2.6c-1.4,0.3-2.8-0.2-4.3-0.3
						c-1.3-0.1-2.5-0.3-3.8-0.1c-1.3,0.2-2.6,0.2-3.9,0.7c-1.9,0.5-3.7,1.8-5.8,1.9c-1.6,0.2-3.2-0.2-4.8-0.3
						c-3.2-0.2-6.4,0.6-9.6,1.2c-1.9,0.4-3.7,1-5.7,1c-3,0.3-5.9-0.3-8.9-0.6c-1.4-0.1-2.7,0-4.1,0.1s-2.7,0.7-4.1,0.9
						c-2,0.3-4,0.3-6,0c-2.7-0.4-5.5-0.2-8.2,0.4c-2.7,0.8-5.5,1.1-8.2,1.1c-0.9,0-1.7-0.3-2.6-0.5c0.5,2.6,1,5.1,1.3,7.7
						c0.3,1.6,0.4,3.3,1,4.8c0.2,0.5,0.6,1,1.2,1.2c2,0.5,4,0.9,6.1,1.1c2.6,0,5.2,0.2,7.9,0.3c6.4-0.1,12.8-0.5,19.1-1.2
						c4.8-0.3,9.6-1.2,14.4-1.5c1.7-0.3,3.4-0.7,5.2-0.8c2.3-0.3,4.5-0.8,6.8-1.2c3-0.4,5.9-1.2,8.9-1.3c1.7-0.2,3.4-0.4,5-0.7
						c1-0.1,1.8-0.6,2.7-1c-0.1,1.3-1.6,1.8-2.7,2c-1.6,0.6-3.3,0.7-4.9,1.1c-2.4,0.2-4.6,0.8-7,1.2c-2.6,0.3-5,1-7.6,1.4
						c-3,0.3-6,1.1-9.1,1.2c-1.1,0-2.3,0.3-3.4,0.4c-5.6,0.6-11.3,0.8-16.9,1.3c-2.4,0-4.8,0.2-7.2,0.2c-1-0.1-2,0-2.9,0
						c-2.1-0.1-4.3-0.3-6.4-0.3c-2.9,0-5.7-0.6-8.4-1.3c-0.9-0.2-1.5-0.9-1.7-1.7c-0.5-1.8-0.8-3.7-1.1-5.5
						c-0.3-2.6-0.8-5.2-0.9-7.8c0-1.2-0.3-2.4-0.4-3.6c-0.2-0.7-0.7-1.2-0.8-1.9c-0.9-3.5-1.3-7-1.9-10.6c-0.2-1.5-0.5-3-0.4-4.5
						c0.1-0.9-0.1-1.9,0.1-2.8c0.2-1.6,0.8-3.1,1.1-4.7c0.3-1.7,1-3.4,1.6-5.1c0.5-1.4,1.2-2.6,2-3.9c0.7-1.2,1.2-2.5,2.1-3.6
						c0.9-1,1.9-1.9,3.2-2.3c0.9-0.3,1.9-0.4,2.9-0.4c0.2-0.2,0.3-0.4,0.5-0.5c-0.4-1.4-0.4-2.9,0.3-4.2c0.6-1.1,1.4-2.1,2.6-2.5
						c1.7-0.7,3.7-1,5-2.3C51.8,40.3,52,39.4,52.5,38.6z M53.1,38.9c-0.4,1-0.8,2.1-1.6,2.9c-1.4,1.3-3.3,1.7-5,2.3
						c-1.1,0.3-1.8,1.2-2.3,2.1c-0.6,1-0.6,2.1-0.5,3.2c0.6-0.4,1.2-0.8,1.9-1c1.4-0.4,2.8-0.2,4.2-0.4c1.7-0.3,3.5-0.5,5-1.4
						c0.9-0.6,1.6-1.5,2.4-2.3c-0.3-1.2-0.5-2.4-1.4-3.2C55,40.4,54.1,39.6,53.1,38.9z M55.9,47.2c-1.5,1.3-3.6,1.8-5.5,2.1
						c-1.6,0.3-3.2,0.1-4.8,0.5c-0.8,0.3-1.5,0.7-2.1,1.4c-0.6,1-0.5,2.3-0.4,3.5c1.4-0.9,3.3-0.8,4.9-0.7c2.7,0.4,5.6,0.2,8.2-0.4
						c1.5-0.3,2.8-1.3,3.9-2.3c0.7-0.6,0.9-1.6,1.4-2.4c-0.7-1.6-2.1-2.9-3.7-3.7C57.1,45.7,56.7,46.7,55.9,47.2z M62,49.9
						c-0.3,0.7-0.6,1.4-1.1,1.9c-1.2,1-2.3,2.1-3.9,2.6c-1.6,0.5-3.2,0.9-4.9,1.2C49.5,56,47,55,44.5,55.3c-0.9,0.2-1.6,0.8-1.9,1.7
						c-0.4,1,0,2.1,0.5,3.1c0.4,0.5,1.2,0.5,1.8,0.7c2.6,0.3,5.2,0.7,7.9,0.5c3.5-0.4,6.9-1.1,10.3-2.1c0.3-0.1,0.6-0.2,0.9-0.4
						c0.4-0.8,0.3-1.6,0.3-2.4C64.2,54,63.2,51.9,62,49.9z M38.2,53c-1.6,1.3-2.2,3.3-3.3,4.9c-1,1.5-1.6,3.1-2.2,4.7
						c-0.9,2.2-1.3,4.5-2,6.7c-0.2,0.9-0.6,1.7-0.4,2.6c0.2,1,0.2,2,0.3,3c0.3,2.1,0.8,4.1,1.1,6.1c0.4,2.2,0.7,4.5,1.3,6.7
						c0.2,0.7,0.6,1.3,1,1.9c0.5-0.4,0.9-0.9,1.1-1.5c0.6-2.3,0.3-4.7,0.5-7.1c0-2-0.4-4.2,0.6-6c0.5-1.1,1.7-1.9,2.9-2
						c0.8,0,1.6,0.5,1.8,1.3c0.4,1.4,0.4,3.1,1.6,4.2c0.8-1.7,0.1-3.8,1.2-5.4c0.5-0.7,1.6-1.2,2.4-0.6c0.7,0.4,0.7,1.3,1,2
						c0.2,0.4,0.7,0.3,1.1,0.4c0.7-0.9,1.2-2,2.2-2.6c0.6-0.3,1.3-0.6,1.9-0.2c0.7,0.5,0.8,1.5,0.9,2.3c0.3,2.4,0.1,4.9,1.3,7
						c0.7,1.1,1.8,2.3,3.2,2.3c0.9-0.1,1.3-1,1.6-1.7c0.9-2.2,0.4-4.6,0.7-6.8c0.1-1.1,0.3-2.3,1-3.2c0.6-0.7,1.5-0.4,2.2-0.2
						c0.5,0.4,0.8,1,1.3,1.4c0.2,0.2,0.6,0.2,0.8-0.1c0.7-0.8,1-2.1,2-2.7c0.8-0.5,1.9-0.3,2.7,0.1c1,0.4,1.2,1.8,2.2,2.3
						c0.6,0.4,1.4,0.9,2.1,0.7c1-0.7,1.2-2.1,1.9-3.1c0.9-1,2.6-0.6,3.2,0.6c0.8,1.5,0.7,3.3,0.9,4.9c0.2,1.4,1.2,2.6,2.4,3.3
						c0.5-2.5-0.7-5-0.5-7.6c0.1-1.1,0.6-2.2,1.6-2.8c0.9-0.5,2.1-0.7,3.1-0.3c0.9,0.3,1.9,0.5,2.3,1.5c0.5,1.3,0.3,2.8,0.2,4.1
						c-0.1,1.8,0,3.6,0.5,5.3c0.2,1.1,0.7,2.1,1.5,3c0.4-0.4,0.8-0.8,0.9-1.4c0.5-1.8,0.2-3.7,0.2-5.5c0-1.7-0.3-3.5,0.4-5.2
						c0.4-1,0.8-2.1,1.9-2.5c0.8-0.3,1.5,0.4,2,0.9c0.5,0.6,1.1,0.9,1.8,1.3c0.8-0.5,1-1.4,1.3-2.2c0.4-1.1,1.5-2,2.7-2.1
						s2.3,0.9,2.6,2.1c0.5,1.7,0.2,3.7,1.2,5.3c0.5,0.6,1.2,1.3,2,1.2c1.3-1.5,1-3.7,1.2-5.6c0.2-1.2-0.5-2.5,0.1-3.7
						c0.4-0.9,1.5-0.9,2.3-1.5c-0.7-0.5-1.4-1-2.2-1.4c-1.8-0.7-3.5-1.5-5.3-2.2c-4.1-1.3-8.1-3.2-12.3-4.1
						c-1.3-0.2-2.6-0.5-3.9-0.9c-3.5-0.8-7-2.1-10.6-2c-2.2-0.2-4.6,0-6.7-0.6c-1.2-0.3-2.5-0.4-3.8-0.8c-1.1-0.3-2.3-0.5-3.5-0.6
						c0.2,0.3,0.5,0.6,0.7,0.9c0.1,0.9,0.5,1.8,0.7,2.7c0.3,1.3,0.2,2.6,0.1,3.8c-0.3,1-1.4,1.4-2.2,1.7c-4.8,1.6-9.9,2.8-14.9,2.1
						c-1.7-0.3-3.5-0.3-5.1-0.9c-0.9-0.3-1.1-1.3-1.3-2.1c-0.3-1.3-0.2-2.8,0.6-3.9c-0.3-1.4-0.4-2.8-0.1-4.2
						C40.7,51.5,39.3,51.9,38.2,53z M92.3,87.2c-1.8,0.3-3.5,1-5.3,1.6c-3.3,0.8-6.5-0.6-9.8-0.6c-1.8,0.1-3.7-0.2-5.5,0
						c-2.7,0.4-5.5,0.7-8.2,1.2c-2.6,0.5-5.3,0.7-8,0.5c-3.5-0.4-7.2,0-10.5,1.3c-2.2,0.8-4.6,1.4-6.9,1.7c-1.4,0.1-2.8-0.1-4.2-0.5
						c0.1,0.4,0.1,0.9,0.2,1.3c1.1,0.1,2.1,0.4,3.2,0.3c2.7-0.1,5.3-0.6,7.8-1.3c2.1-0.3,4.2-0.7,6.4-0.5c2,0.2,4,0.6,6.1,0.4
						c1.8-0.1,3.5-0.9,5.4-1.1c3.5-0.5,6.9,0.3,10.3,0.5c2.6,0.2,5.2-0.4,7.7-1c2.9-0.5,5.8-1.3,8.7-1.3c2.1-0.2,4.2,0.6,6.4,0.4
						c2.1-0.1,3.8-1.4,5.8-1.8c1.3-0.4,2.6-0.4,3.9-0.6c1.2-0.2,2.4,0,3.6,0.1c1.5,0.1,2.9,0.6,4.4,0.3c-0.1-0.6-0.1-1.3-0.2-1.9
						c-0.6,0.4-1.3,0.9-2.1,1c-3.3,0.5-6.7,0.2-10-0.2C98.3,86.5,95.2,86.5,92.3,87.2z"/>
					<path class="st4" d="M106.5,63.3c0.8-0.1,1.3-0.6,1.9-1c0,0.9-0.7,1.5-1.5,1.7c-1.4,0.6-2.9,0.8-4.4,1.1
						c-2.5,0.6-5,0.7-7.5,1.1c-1.5,0.3-3,0.3-4.4,0.3c-0.7,0-1.4-0.1-2.1-0.3c0.4-0.2,0.8-0.5,1.2-0.5c2.4-0.3,4.8-0.4,7.2-0.8
						C100.2,64.6,103.4,63.9,106.5,63.3z"/>
					<path class="st4" d="M51,69.8c1.1-0.1,2.2-0.5,3.3-0.4c-0.4,0.8-1.3,0.8-2.1,1.1c-2.7,0.6-5.4,1-8.2,1.4
						c-1.7,0.3-3.4,0.2-5.1,0.2c-2,0-4,0.2-6,0.2c-0.3,0-0.6-0.2-0.8-0.3c1.2-0.5,2.7-0.5,4-0.8c2.6-0.5,5.2,0,7.8-0.5
						C46.4,70.4,48.7,70,51,69.8z"/>
					<path class="st4" d="M56.7,69.4c1.3-0.1,2.5-0.5,3.8-0.4c-0.3,0.3-0.6,0.5-1,0.6c-1.2,0.3-2.4,0.5-3.6,0.4
						C55.7,69.5,56.3,69.5,56.7,69.4z"/>
					<path class="st4" d="M104.6,76.4c0.5-0.1,0.5,0.4,0.5,0.7c-0.3,0.2-0.6,0.3-0.9,0.2C103.8,77,104.1,76.5,104.6,76.4z"/>
					<path class="st4" d="M45.1,80.6c0.6-0.4,1.4,0.5,0.9,1C45.5,82.2,44.3,81.1,45.1,80.6z"/>
					<path class="st4" d="M72.7,80.7c0.3-0.1,0.5,0,0.4,0.3C72.7,81.1,72.6,81,72.7,80.7z"/>
					<path class="st4" d="M76.2,81.3c0.1-0.4,0.5-0.4,0.9-0.6c0.1,0.2,0.3,0.5,0.4,0.6c-0.2,0.2-0.4,0.7-0.7,0.7
						C76.3,82.2,76.2,81.6,76.2,81.3z"/>
					<path class="st4" d="M47.4,83.6c0.2-0.3,0.7,0,0.5,0.3C47.7,84.2,47.2,83.9,47.4,83.6z"/>
					<path class="st4" d="M45,83.9c0.5,0,0.8,0.5,0.6,1C45.3,85,45,85,44.8,84.8C44.6,84.5,44.7,84.1,45,83.9z"/>
					<path class="st4" d="M99.9,95.9c0.5-0.3,1.2-0.1,1.1,0.5c0.1,0.6-0.6,0.6-1,0.7C99.9,96.7,99.7,96.3,99.9,95.9z"/>
					<path class="st4" d="M107.3,97.5c0.5-0.3,1.2,0.2,1,0.8c-0.1,0.6-1.1,0.6-1.2,0.1C107,98,107,97.6,107.3,97.5z"/>
					<path class="st4" d="M41.5,101.5c0.2-0.3,0.8-0.1,0.6,0.3C42.3,102.5,40.9,101.9,41.5,101.5z"/>
					<path class="st4" d="M72.5,101.7c-0.3-0.2-0.5-0.8,0-0.9c0.4-0.2,0.7,0.2,1.1,0.4C73.2,101.4,72.9,101.8,72.5,101.7z"/>
					<path class="st4" d="M103.9,99.6c0.6,0,0.4,1-0.1,0.7C103.4,100.3,103.6,99.4,103.9,99.6z"/>
				</g>
			</g>
		</g>
	</g>
</g>
</svg>
