<?xml version="1.0" encoding="utf-8"?>
<!-- Generator: Adobe Illustrator 25.0.1, SVG Export Plug-In . SVG Version: 6.00 Build 0)  -->
<svg version="1.1" id="Layer_1" xmlns="http://www.w3.org/2000/svg" xmlns:xlink="http://www.w3.org/1999/xlink" x="0px" y="0px"
	 viewBox="0 0 500 112.5" style="enable-background:new 0 0 500 112.5;" xml:space="preserve">
<g>
	<path d="M21,21.7v58.5H55v13.7H6.9V21.7H21z"/>
	<path d="M110.6,51.1v42.9H98.2l-1-6.9c-1.5,2.7-3.6,5-6.3,6.5s-5.9,2.4-9.5,2.4c-3.9,0-7.2-1.2-9.8-3.6s-4-5.5-4-9.2V51.1h13.7v27
		c0.2,4.2,2.1,6.3,5.8,6.3c3,0,5.4-1.5,7.2-4.4c1.8-2.9,2.7-6.7,2.7-11.4V51.1L110.6,51.1L110.6,51.1z"/>
	<path d="M151.7,93.9l-9.9-12.8l-9,12.8h-13.6l15.9-21.6l-16.4-21.3h16.8l9.4,12.3l7.4-12.3h13.6l-14.7,20.5l17.1,22.4
		C168.4,93.9,151.7,93.9,151.7,93.9z"/>
	<path d="M205.3,80.6l6.1,10.2c-2.3,1.3-4.9,2.3-7.5,3.1s-5.1,1.2-7.5,1.2c-5.1,0-9.5-1-13.2-2.9c-3.7-1.9-6.5-4.7-8.4-8.2
		c-1.9-3.5-2.8-7.5-2.8-12.1c0-4.2,1.1-8.1,3.3-11.6c2.2-3.5,5.2-6.3,8.9-8.4c3.8-2,8-3.1,12.4-3.1c6.1,0,11.2,1.8,15.2,5.4
		c4,3.6,6.5,8.7,7.7,15.4l-31.4,10c2.1,2.4,5,3.6,8.6,3.6C199.6,83.4,202.4,82.4,205.3,80.6z M188.3,62.8c-1.8,2.1-2.7,4.9-2.7,8.5
		v0.9l18.9-6.4c-1.4-4.1-4.3-6.1-8.7-6.1C192.7,59.7,190.1,60.8,188.3,62.8z"/>
	<path d="M274.3,28.2c4.9,4.4,7.3,10.3,7.3,17.8c0,4.3-0.9,8.4-2.5,12.1c-1.7,3.8-4.4,6.9-8.2,9.2c-3.8,2.4-8.6,3.6-14.6,3.6h-10.2
		v22.8h-14.2V21.7h21.9C262.6,21.7,269.4,23.9,274.3,28.2z M262.7,55.4c1.7-1.2,2.8-2.6,3.5-4.3c0.7-1.7,1.1-3.2,1.1-4.7
		c0-2.5-0.8-5.1-2.2-7.4c-1.5-2.4-4.4-3.6-8.7-3.6h-10.2v21.8h10.1C258.9,57.3,261.1,56.6,262.7,55.4z"/>
	<path d="M321.9,80.6l6.1,10.2c-2.3,1.3-4.9,2.3-7.5,3.1s-5.1,1.2-7.5,1.2c-5.1,0-9.5-1-13.2-2.9c-3.7-1.9-6.5-4.7-8.4-8.2
		c-1.9-3.5-2.8-7.5-2.8-12.1c0-4.2,1.1-8.1,3.3-11.6c2.2-3.5,5.2-6.3,8.9-8.4c3.8-2,8-3.1,12.4-3.1c6.1,0,11.2,1.8,15.2,5.4
		c4,3.6,6.5,8.7,7.7,15.4l-31.4,10c2.1,2.4,5,3.6,8.6,3.6C316.2,83.4,319,82.4,321.9,80.6z M305,62.8c-1.8,2.1-2.7,4.9-2.7,8.5v0.9
		l18.9-6.4c-1.4-4.1-4.3-6.1-8.7-6.1C309.3,59.7,306.9,60.8,305,62.8z"/>
	<path d="M386.2,52.6c2.7,2.4,4.1,5.5,4.2,9.2v32.1h-13.7V67c-0.2-4.2-2.3-6.3-6.3-6.3c-3.1,0-5.6,1.5-7.6,4.4
		c-1.9,2.9-2.8,6.7-2.8,11.4v17.5h-13.7V51.1h12.4l1,6.9c1.6-2.8,3.8-5,6.5-6.6c2.8-1.6,6-2.3,9.8-2.3
		C380.1,49,383.5,50.2,386.2,52.6z"/>
	<path d="M433.9,93.7c-2.8,0.9-5.6,1.4-8.4,1.4c-7.5,0-13.3-2-17.7-6c-4.4-4-6.5-9.5-6.5-16.6c0-4.6,1.1-8.6,3.2-12.1
		c2.1-3.4,5-6,8.4-7.9c3.5-1.8,7.2-2.7,11.2-2.7c7.1,0,12.9,1.9,17.4,5.7l-6.7,8.8c-2.8-2.2-5.9-3.3-9.4-3.3c-2.9,0-5.3,1.1-7.3,3.2
		c-2,2.1-3,4.9-3,8.2c0,3.3,1.1,6,3.2,8.2c2.1,2.2,5,3.3,8.5,3.3c3,0,5.5-0.8,7.5-2.4l6.9,8.6C439,91.6,436.7,92.8,433.9,93.7z"/>
	<path d="M453.6,30.9c1.6-1.4,3.3-2,5.2-2c1.9,0,3.6,0.7,5.1,2c1.5,1.4,2.2,3,2.2,5s-0.8,3.6-2.2,4.9c-1.5,1.3-3.2,1.9-5.1,1.9
		c-1.9,0-3.7-0.7-5.2-1.9c-1.6-1.3-2.3-2.9-2.3-4.9C451.3,33.8,452,32.2,453.6,30.9z M465.3,51.1v42.9h-13.7V51.1H465.3z"/>
	<path d="M493.1,16.6v77.4h-13.7V16.6H493.1z"/>
</g>
</svg>
